<?xml version="1.0" encoding="UTF-8"?><svg id="Ebene_2" xmlns="http://www.w3.org/2000/svg" viewBox="0 0 43.74 43.78"><defs><style>.cls-1{fill:#eaeaea;}</style></defs><g id="Ebene_1-2"><g id="mS5jGd"><path class="cls-1" d="M25.22.05c17.35-1.19,25.43,21.28,11.27,31.41-.83.59-2.67,1.36-3.18,1.82-.36.34-.81,1.59-1.13,2.12-5.57,9.17-18.12,11.22-26.26,4.13-8.43-7.33-7.76-20.72,1.32-27.19.72-.52,2.88-1.5,3.24-1.89.31-.33.58-1.21.85-1.65C14.35,3.78,19.29.45,25.22.05ZM34.01,31.03c.21.17,2.76-1.84,3.07-2.12,7.95-7.32,6.23-20.45-3.32-25.46C27.1-.05,18.76,1.7,14.12,7.58c-.19.24-1.49,2.05-1.38,2.19,7.48-2.15,15.57,1.22,19.49,7.84,2.36,3.98,3.08,8.96,1.78,13.42ZM31.97,32c4.9-12.45-7.74-25.1-20.2-20.2-4.9,12.46,7.74,25.1,20.2,20.2ZM9.74,12.77c-.21-.17-2.76,1.84-3.07,2.12C.58,20.54-.07,29.85,5.11,36.34c5.93,7.43,17.34,7.74,23.77.76.28-.3,2.3-2.86,2.12-3.07-7.49,2.15-15.56-1.22-19.49-7.84-2.36-3.98-3.08-8.96-1.78-13.42Z"/><path class="cls-1" d="M17.09,12.17c-.88.22-3.91,4.03-4.91,4.73-.62.86.15,1.88,1.05,1.3l4.69-4.69c.5-.66,0-1.55-.84-1.34ZM22.21,13.8c-.19.04-.33.15-.47.28l-8,8.01c-.71.93.23,1.95,1.19,1.19l8.14-8.13c.58-.77.17-1.59-.85-1.36ZM26.47,16.42c-.2.02-.44.15-.6.28l-9.57,9.69c-.32.99.62,1.49,1.38.88l9.44-9.44c.56-.51.05-1.48-.66-1.42ZM29.21,20.44c-.2.01-.43.14-.59.27l-8.32,8.44c-.32.99.61,1.49,1.38.88l8.07-8.07c.49-.58.34-1.57-.54-1.53ZM30.6,25.67c-.78.16-4.09,4.19-5.03,4.86-.55.86.34,1.76,1.37.99.87-.65,3.64-3.45,4.31-4.32.61-.79.4-1.76-.66-1.54Z"/><path class="cls-1" d="M26.47,16.42c.71-.06,1.22.9.66,1.42l-9.44,9.44c-.76.61-1.71.11-1.38-.88l9.57-9.69c.16-.13.4-.27.6-.28Z"/><path class="cls-1" d="M29.21,20.44c.89-.05,1.03.95.54,1.53l-8.07,8.07c-.77.61-1.7.11-1.38-.88l8.32-8.44c.16-.13.38-.26.59-.27Z"/><path class="cls-1" d="M22.21,13.8c1.02-.24,1.43.58.85,1.36l-8.14,8.13c-.96.76-1.9-.25-1.19-1.19l8-8.01c.13-.13.28-.24.47-.28Z"/><path class="cls-1" d="M30.6,25.67c1.06-.22,1.26.75.66,1.54-.67.87-3.45,3.67-4.31,4.32-1.03.77-1.92-.14-1.37-.99.93-.68,4.25-4.7,5.03-4.86Z"/><path class="cls-1" d="M17.09,12.17c.84-.21,1.33.69.84,1.34l-4.69,4.69c-.9.58-1.67-.44-1.05-1.3.99-.71,4.02-4.51,4.91-4.73Z"/></g></g></svg>