<?xml version="1.0" encoding="UTF-8"?><svg id="Ebene_2" xmlns="http://www.w3.org/2000/svg" viewBox="0 0 216.11 216.11"><defs><style>.cls-1{fill:#fff;}</style></defs><g id="Ebene_1-2"><rect class="cls-1" width="216.11" height="216.11" rx="29.87" ry="29.87"/><path d="M172.26,91.56c-6.24,0-11.5,4.4-15.78,13.34l-9.18,19.33c-.03.07-.04.14-.07.21-3.17,6.42-6.46,9.59-9.99,9.59-2.33,0-3.55-.99-3.55-2.82,0-1.23.36-2.69,1.22-4.4l8.82-18.96c1.23-2.45,1.83-4.77,1.83-6.97,0-5.88-3.68-9.31-9.91-9.31-3.55,0-6.85,1.59-10.03,4.77-1.46-3.18-4.28-4.77-8.57-4.77-2.44,0-5.38,1.47-6.49,2.94-.24-1.59-1.1-2.45-2.69-2.45s-2.69.74-3.3,2.2l-13.83,29.98c-.5,1.07-1.03,1.92-1.54,2.81-2.71,4.58-5.52,6.98-8.51,6.98-2.32,0-3.55-.99-3.55-2.82,0-1.23.37-2.69,1.23-4.4l13.58-29.98c2.08-4.64-4.16-6.84-6-2.44l-14.07,30.96c-1.84,4.04-5.76,8.69-9.67,8.69-2.81,0-4.15-.99-4.15-2.94,0-.86.37-2.2,1.1-4.04l13.83-29.98c2.08-4.65-3.92-7.09-6-2.69l-13.69,29.96s-.01,0-.02.02c-1.35,2.44-1.35,2.81-3.3,5.62-1.96,2.82-4.16,4.05-6.74,4.05-4.64,0-3.55-4.28-2.32-7.22l26.43-57.39c2.57-5.26-3.92-6.97-6-2.57l-26.43,57.27c-1.23,2.57-1.83,5.02-1.83,7.09,0,6.12,3.43,9.18,10.15,9.18,3.55,0,6.74-1.46,9.54-4.4.01-.01.02-.03.03-.04,1.67,2.83,4.85,4.44,9.39,4.44,3.56,0,6.74-1.46,9.43-4.27,1.59,2.81,4.53,4.27,9.06,4.27,0,0,0,0,0,0s0,0,0,0c1.69,0,3.22-.43,4.67-1.02.18-.08.36-.13.54-.21,5.72-2.64,9.51-9,10.94-12.35l9.3-20.55c1.59-3.8,5.76-8.32,10.16-8.32,2.32,0,3.55.98,3.55,2.94,0,1.1-.37,2.44-1.11,4.27l-14.07,30.11c-.37.61-.49,1.22-.49,1.71,0,1.46.86,2.32,2.44,2.44,2.08.25,3.68-.74,4.77-3.06l13.46-29.12c2.33-4.77,6.37-9.3,10.77-9.3,2.2,0,3.31.98,3.31,2.94,0,.85-.37,2.2-1.11,4.04l-8.93,19.21c-1.23,2.57-1.84,5.02-1.84,7.09,0,6.12,3.43,9.18,10.16,9.18,3.55,0,6.73-1.46,9.54-4.4.04-.04.07-.09.11-.13,1.66,2.89,4.87,4.53,9.47,4.53,6.24,0,11.5-4.4,15.78-13.33l9.06-19.21c1.23-2.45,1.83-4.77,1.83-6.97,0-6-4.04-9.31-10.77-9.31ZM175.32,104.91l-8.81,19.09c-3.18,6.73-6.61,10.03-10.15,10.03-2.82,0-4.16-.99-4.16-2.94,0-1.23.37-2.57,1.11-4.04l8.81-18.85c1.46-2.93,1.46-3.06,3.31-5.99,1.95-2.94,4.27-4.28,6.84-4.28,4.05,0,5.14,2.32,3.06,6.97Z"/></g></svg>