<?xml version="1.0" encoding="UTF-8"?><svg id="Ebene_2" xmlns="http://www.w3.org/2000/svg" viewBox="0 0 87.36 106.79"><defs><style>.cls-1{fill:none;stroke:#fff;stroke-miterlimit:10;stroke-width:4px;}.cls-2{fill:#fff;}</style></defs><g id="Ebene_1-2"><path class="cls-1" d="M43.68,2C20.66,2,2,20.66,2,43.68c0,6.78,1.63,13.18,4.51,18.84,8.39,18.59,26.24,34.7,33.73,40.92,0,0,3.41,3.03,6.9,0,7.48-6.22,25.34-22.33,33.73-40.92,2.87-5.66,4.51-12.06,4.51-18.84,0-23.02-18.66-41.68-41.68-41.68Z"/><circle class="cls-1" cx="43.4" cy="42.98" r="14.75"/><polyline class="cls-2" points="43.68 16.75 47.08 23.54 40.29 23.54 43.68 16.75"/><polyline class="cls-2" points="25.05 24.24 32.25 26.64 27.45 31.44 25.05 24.24"/><polyline class="cls-2" points="17.18 42.7 23.96 39.31 23.96 46.09 17.18 42.7"/><polyline class="cls-2" points="24.66 61.33 27.06 54.13 31.86 58.93 24.66 61.33"/><polyline class="cls-2" points="43.13 69.2 39.73 62.42 46.52 62.42 43.13 69.2"/><polyline class="cls-2" points="61.75 61.72 54.55 59.32 59.35 54.52 61.75 61.72"/><polyline class="cls-2" points="69.63 43.26 62.84 46.65 62.84 39.86 69.63 43.26"/><polyline class="cls-2" points="62.15 24.63 59.74 31.83 54.94 27.03 62.15 24.63"/></g></svg>