<?xml version="1.0" encoding="UTF-8"?><svg id="Ebene_2" xmlns="http://www.w3.org/2000/svg" viewBox="0 0 159.53 159.53"><defs><style>.cls-1{fill:#1d1d1b;}.cls-2{fill:#fff;}</style></defs><g id="Ebene_1-2"><rect class="cls-2" width="159.53" height="159.53" rx="12.46" ry="12.46"/><path class="cls-1" d="M79.12,10.79c-30.84,0-55.94,25.09-55.94,55.94,0,8.88,2.03,17.38,5.99,25.17,10.93,24.2,34.13,45.12,43.56,52.96,1.35,1.2,3.77,2.47,6.52,2.47,2.26,0,4.35-.82,6.19-2.41,9.48-7.88,32.71-28.81,43.58-52.9,4.01-7.91,6.05-16.42,6.05-25.29,0-30.84-25.09-55.94-55.94-55.94Z"/><path class="cls-2" d="M78.76,84.72c-10.41,0-18.89-8.47-18.89-18.89s8.48-18.89,18.89-18.89,18.89,8.47,18.89,18.89-8.48,18.89-18.89,18.89ZM78.76,54.98c-5.99,0-10.86,4.87-10.86,10.86s4.87,10.86,10.86,10.86,10.86-4.87,10.86-10.86-4.87-10.86-10.86-10.86Z"/><path class="cls-2" d="M78.77,106.71c-2.26,0-4.08-1.83-4.08-4.08v-5.87c0-2.26,1.83-4.08,4.08-4.08s4.08,1.83,4.08,4.08v5.87c0,2.26-1.83,4.08-4.08,4.08Z"/><path class="cls-2" d="M97.17,101.78c-1.41,0-2.78-.73-3.54-2.04l-2.94-5.08c-1.13-1.95-.46-4.45,1.5-5.58,1.95-1.13,4.45-.46,5.58,1.5l2.94,5.08c1.13,1.95.46,4.45-1.5,5.58-.64.37-1.34.55-2.04.55Z"/><path class="cls-2" d="M110.63,88.32c-.69,0-1.4-.18-2.04-.55l-5.08-2.94c-1.95-1.13-2.62-3.62-1.5-5.58,1.13-1.96,3.63-2.63,5.58-1.49l5.08,2.94c1.95,1.13,2.62,3.62,1.5,5.58-.76,1.31-2.13,2.04-3.54,2.04Z"/><path class="cls-2" d="M115.56,69.92h-5.87c-2.26,0-4.08-1.83-4.08-4.08s1.83-4.08,4.08-4.08h5.87c2.26,0,4.08,1.83,4.08,4.08s-1.83,4.08-4.08,4.08Z"/><path class="cls-2" d="M105.55,54.46c-1.41,0-2.78-.73-3.54-2.04-1.13-1.95-.46-4.45,1.5-5.58l5.08-2.94c1.94-1.13,4.45-.46,5.58,1.49,1.13,1.95.46,4.45-1.5,5.58l-5.08,2.94c-.64.37-1.34.55-2.04.55Z"/><path class="cls-2" d="M94.22,43.14c-.69,0-1.4-.18-2.04-.55-1.95-1.13-2.62-3.62-1.5-5.58l2.94-5.09c1.13-1.95,3.63-2.63,5.58-1.5,1.95,1.13,2.62,3.62,1.5,5.58l-2.94,5.09c-.76,1.31-2.13,2.04-3.54,2.04Z"/><path class="cls-2" d="M78.77,39c-2.26,0-4.08-1.83-4.08-4.08v-5.87c0-2.26,1.83-4.08,4.08-4.08s4.08,1.83,4.08,4.08v5.87c0,2.26-1.83,4.08-4.08,4.08Z"/><path class="cls-2" d="M63.31,43.14c-1.41,0-2.78-.73-3.54-2.04l-2.94-5.09c-1.13-1.95-.46-4.45,1.5-5.58,1.94-1.13,4.45-.46,5.58,1.49l2.94,5.09c1.13,1.95.46,4.45-1.5,5.58-.64.37-1.34.55-2.04.55Z"/><path class="cls-2" d="M51.98,54.46c-.69,0-1.4-.18-2.04-.55l-5.09-2.94c-1.95-1.13-2.62-3.62-1.5-5.58,1.13-1.96,3.62-2.63,5.58-1.5l5.09,2.94c1.95,1.13,2.62,3.62,1.5,5.58-.76,1.31-2.13,2.04-3.54,2.04Z"/><path class="cls-2" d="M47.85,69.92h-5.87c-2.26,0-4.08-1.83-4.08-4.08s1.83-4.08,4.08-4.08h5.87c2.26,0,4.08,1.83,4.08,4.08s-1.83,4.08-4.08,4.08Z"/><path class="cls-2" d="M46.9,88.32c-1.41,0-2.78-.73-3.54-2.04-1.13-1.95-.46-4.45,1.5-5.58l5.09-2.94c1.94-1.13,4.45-.46,5.58,1.5,1.13,1.95.46,4.45-1.5,5.58l-5.09,2.94c-.64.37-1.34.55-2.04.55Z"/><path class="cls-2" d="M60.36,101.78c-.69,0-1.4-.18-2.04-.55-1.95-1.13-2.62-3.63-1.5-5.58l2.94-5.08c1.13-1.95,3.63-2.63,5.58-1.49,1.95,1.13,2.62,3.63,1.5,5.58l-2.94,5.08c-.76,1.31-2.13,2.04-3.54,2.04Z"/></g></svg>