<?xml version="1.0" encoding="UTF-8"?><svg id="Ebene_2" xmlns="http://www.w3.org/2000/svg" viewBox="0 0 136.13 136.13"><defs><style>.cls-1{fill:#1d1d1b;}.cls-2{fill:#fff;}.cls-3{fill:none;stroke:#fff;stroke-width:.3px;}</style></defs><g id="Ebene_1-2"><rect class="cls-1" x=".15" y=".15" width="135.83" height="135.83" rx="28.52" ry="28.52"/><rect class="cls-3" x=".15" y=".15" width="135.83" height="135.83" rx="28.52" ry="28.52"/><path class="cls-2" d="M68.91,16.67c-23.02,0-41.68,18.66-41.68,41.68,0,6.78,1.63,13.18,4.51,18.84,8.39,18.59,26.24,34.7,33.73,40.92,0,0,3.41,3.03,6.9,0,7.48-6.22,25.34-22.33,33.73-40.92,2.87-5.66,4.51-12.06,4.51-18.84,0-23.02-18.66-41.68-41.68-41.68Z"/><circle class="cls-1" cx="68.64" cy="57.65" r="14.75"/><polyline class="cls-1" points="68.91 31.42 72.31 38.21 65.52 38.21 68.91 31.42"/><polyline class="cls-1" points="50.29 38.91 57.49 41.31 52.69 46.11 50.29 38.91"/><polyline class="cls-1" points="42.41 57.37 49.2 53.98 49.2 60.76 42.41 57.37"/><polyline class="cls-1" points="49.89 76 52.29 68.8 57.09 73.6 49.89 76"/><polyline class="cls-1" points="68.36 83.88 64.96 77.09 71.75 77.09 68.36 83.88"/><polyline class="cls-1" points="86.98 76.39 79.78 73.99 84.58 69.19 86.98 76.39"/><polyline class="cls-1" points="94.86 57.93 88.07 61.32 88.07 54.53 94.86 57.93"/><polyline class="cls-1" points="87.38 39.3 84.98 46.5 80.18 41.7 87.38 39.3"/></g></svg>