<?xml version="1.0" encoding="UTF-8"?><svg id="Ebene_2" xmlns="http://www.w3.org/2000/svg" viewBox="0 0 18.8 34.97"><defs><style>.cls-1{fill:#eaeaea;}</style></defs><g id="Ebene_1-2"><path class="cls-1" d="M16.02,32.86h-5.72v-11.52c4.75-.51,8.49-4.84,8.49-10.16,0-2.1-.66-7.04-1.85-10.47l-.25-.71H2.09l-.25.71C.66,4.13,0,9.07,0,11.18c0,5.21,3.58,9.47,8.19,10.13v11.56H2.37c-.58,0-1.06.47-1.06,1.06s.47,1.06,1.06,1.06h13.65c.58,0,1.06-.47,1.06-1.06s-.47-1.06-1.06-1.06ZM3.61,2.11h11.58c.94,3.06,1.5,7.21,1.5,9.07,0,.38-.06.74-.1,1.11H2.21c-.05-.37-.1-.73-.1-1.11,0-1.86.56-6.01,1.5-9.07Z"/></g></svg>