<?xml version="1.0" encoding="UTF-8"?><svg id="Ebene_2" xmlns="http://www.w3.org/2000/svg" viewBox="0 0 218.76 334.69"><defs><style>.cls-1{fill:#1d1d1b;}</style></defs><g id="Ebene_1-2"><path class="cls-1" d="M135.71,136.32c2.99,11.71,3.81,38.12,18.48,38.56,9.45.28,86.52-36.44,58.45-34.79l-48.92,4.02c-7.34-55.61-23.93-75.62-81.8-71.5C30.04,76.31,14.8,98.86.75,145.98c0,0-1.68,7.9,0,9.77,3.39,3.77,7.04,2.49,11.51-1.54,21.75-19.57,25.38-54.4,63.86-49.64-4.41,22.11-18.86,52.36-19.58,74.06-1.42,42.7,50.26,112.11,75.05,149.49,8.55,12.41,38.8,4.85,31.27-18.1-6.83-20.8-46.2-70.64-50.98-88.57-5.09-19.13,15.48-76.96,17.87-81.21,1.03-1.82,4.9-5.04,5.96-3.93Z"/><path class="cls-1" d="M36.11,275c-10.51,13.69-41.28,41.54-28.88,54.59,6.8,7.15,17.81,6.28,24.28.5,6.75-6.04,43.22-48.53,45.74-55.47,2.91-7.99.74-9.93-11.12-35.34-.23.56-19.39,21.88-30.02,35.73Z"/><ellipse class="cls-1" cx="119.99" cy="32.61" rx="32.63" ry="32.61"/></g></svg>