<?xml version="1.0" encoding="UTF-8"?><svg id="Ebene_2" xmlns="http://www.w3.org/2000/svg" viewBox="0 0 108 192"><defs><style>.cls-1{fill:#fff;}</style></defs><g id="Ebene_1-2"><g id="AeXYby.tif"><path class="cls-1" d="M108,101v91H0V0h108v96c-4.91-6.16-13.05-10.37-17.81-16.52-8.39-10.84-10.81-29.98-28.35-32.39-23.45-3.22-41.77,3.28-51.7,25.65-1.71,3.85-9.29,24.88-9.12,27.7.42,6.96,8.89,9.58,13.32,4.54,5.47-6.2,6.18-29.54,15.37-34.98.12,10.5-3.63,30.61.61,39.89,2.36,5.17,15.2,12.22,20.22,16.6,23.42,20.44,18.38,36.5,31.34,59.42,5.35,9.46,18.68,6.35,17.12-6.31-.8-6.5-12.45-36.25-15.91-42.95-4.5-8.71-11.67-15.58-17.49-23.34,1.13-12.39.15-26.47,3.06-38.52.24-1,.29-3.01,1.68-2.77,3.4,11.2,11.96,21.16,20.81,28.5,6.22,5.16,11.27,9.29,16.86.49ZM47.3,1.24c-23.45,4.09-18.49,41.4,5.57,39.69,26.18-1.86,23.75-44.8-5.57-39.69ZM32.71,119c-1.07,5.76-1.31,11.67-3.2,17.28-3.95,11.68-18.94,33.75-20.37,43.47-1.62,10.97,11.29,16.16,17.64,5.77,4.69-7.66,21.82-42.85,22.58-50.32.62-6.15-12.3-12.37-16.65-16.2Z"/><path d="M108,96v5c-5.59,8.8-10.64,4.67-16.86-.49-8.85-7.34-17.41-17.3-20.81-28.5-1.4-.24-1.44,1.77-1.68,2.77-2.9,12.05-1.93,26.13-3.06,38.52,5.82,7.76,12.99,14.63,17.49,23.34,3.46,6.7,15.11,36.45,15.91,42.95,1.57,12.66-11.77,15.77-17.12,6.31-12.96-22.91-7.92-38.98-31.34-59.42-5.02-4.38-17.86-11.42-20.22-16.6-4.24-9.29-.5-29.4-.61-39.89-9.19,5.44-9.9,28.77-15.37,34.98-4.44,5.04-12.91,2.42-13.32-4.54-.17-2.82,7.42-23.85,9.12-27.7,9.93-22.37,28.24-28.87,51.7-25.65,17.54,2.41,19.96,21.55,28.35,32.39,4.76,6.15,12.9,10.36,17.81,16.52Z"/><path d="M32.71,119c4.35,3.84,17.27,10.05,16.65,16.2-.75,7.47-17.89,42.66-22.58,50.32-6.36,10.39-19.26,5.19-17.64-5.77,1.43-9.72,16.42-31.8,20.37-43.47,1.9-5.6,2.13-11.52,3.2-17.28Z"/><path d="M47.3,1.24c29.31-5.11,31.75,37.83,5.57,39.69-24.06,1.71-29.01-35.6-5.57-39.69Z"/></g></g></svg>