<?xml version="1.0" encoding="UTF-8"?><svg id="Ebene_2" xmlns="http://www.w3.org/2000/svg" viewBox="0 0 32.42 39.57"><defs><style>.cls-1{fill:#fff;}</style></defs><g id="Ebene_1-2"><path class="cls-1" d="M16.21,0C7.27,0,0,7.27,0,16.21c0,2.57.59,5.04,1.73,7.29,3.17,7.01,9.89,13.08,12.62,15.35.39.35,1.09.72,1.89.72.65,0,1.26-.24,1.79-.7,2.75-2.28,9.48-8.35,12.63-15.33,1.16-2.29,1.75-4.76,1.75-7.33C32.42,7.27,25.15,0,16.21,0ZM30.66,16.21c0,2.29-.53,4.5-1.57,6.55v.02c-3.02,6.68-9.53,12.53-12.19,14.75-.64.56-1.23.14-1.4-.01-2.65-2.2-9.15-8.06-12.18-14.77-1.04-2.04-1.56-4.24-1.56-6.53C1.76,8.24,8.24,1.76,16.21,1.76s14.45,6.48,14.45,14.45Z"/></g></svg>