<?xml version="1.0" encoding="UTF-8"?><svg id="Ebene_2" xmlns="http://www.w3.org/2000/svg" xmlns:xlink="http://www.w3.org/1999/xlink" viewBox="0 0 159.53 159.53"><defs><style>.cls-1{fill:#fff;}.cls-2{fill:url(#Unbenannter_Verlauf_33);}</style><linearGradient id="Unbenannter_Verlauf_33" x1="79.76" y1="159.53" x2="79.76" y2="0" gradientUnits="userSpaceOnUse"><stop offset="0" stop-color="#1d1d1b"/><stop offset="1" stop-color="#ededed"/></linearGradient></defs><g id="Ebene_1-2"><rect class="cls-2" width="159.53" height="159.53"/><path class="cls-1" d="M67.56,57.33l-1.51-4.54h-9.11l-1.55,4.54h-5.22l9.32-25.63h3.92l9.36,25.63h-5.22ZM61.58,39.26l-3.24,9.32h6.37l-3.13-9.32Z"/><path class="cls-1" d="M75.05,57.33v-25.63h5v21.17h11.63v4.46h-16.63Z"/><path class="cls-1" d="M101.76,36.17v21.17h-5v-21.17h-6.69v-4.46h18.39v4.46h-6.7Z"/><path class="cls-1" d="M16.46,93.55c-3.89,0-6.84-.83-9.36-3.38l3.24-3.24c1.62,1.62,3.82,2.16,6.16,2.16,2.99,0,4.57-1.15,4.57-3.2,0-.86-.25-1.58-.79-2.12-.5-.47-1.01-.68-2.3-.86l-3.06-.47c-2.27-.32-3.82-1.01-4.97-2.12-1.22-1.19-1.84-2.88-1.84-5.04,0-4.57,3.38-7.77,8.93-7.77,3.53,0,6.08.86,8.28,2.99l-3.17,3.13c-1.58-1.55-3.56-1.76-5.26-1.76-2.66,0-3.92,1.48-3.92,3.24,0,.68.18,1.33.72,1.84.5.47,1.26.83,2.34.97l3.06.47c2.34.32,3.78.94,4.9,2.02,1.37,1.26,1.98,3.1,1.98,5.4,0,4.97-4.1,7.78-9.5,7.78Z"/><path class="cls-1" d="M39.57,72.17v21.17h-5v-21.17h-6.69v-4.46h18.39v4.46h-6.7Z"/><path class="cls-1" d="M49.43,93.33v-25.63h16.88v4.46h-11.88v6.01h10.11v4.46h-10.11v6.23h11.88v4.46h-16.88Z"/><path class="cls-1" d="M80.1,72.17v21.17h-5v-21.17h-6.69v-4.46h18.39v4.46h-6.7Z"/><path class="cls-1" d="M99.76,72.17v21.17h-5v-21.17h-6.69v-4.46h18.39v4.46h-6.7Z"/><path class="cls-1" d="M109.62,93.33v-25.63h16.88v4.46h-11.88v6.01h10.11v4.46h-10.11v6.23h11.88v4.46h-16.88Z"/><path class="cls-1" d="M145.66,93.33l-10.15-15.73v15.73h-5v-25.63h4.46l10.15,15.69v-15.69h5v25.63h-4.46Z"/></g></svg>