<?xml version="1.0" encoding="UTF-8"?><svg id="Ebene_2" xmlns="http://www.w3.org/2000/svg" xmlns:xlink="http://www.w3.org/1999/xlink" viewBox="0 0 159.53 159.53"><defs><style>.cls-1{fill:#fff;}.cls-2{fill:url(#Unbenannter_Verlauf_33);}</style><linearGradient id="Unbenannter_Verlauf_33" x1="79.76" y1="159.53" x2="79.76" y2="0" gradientUnits="userSpaceOnUse"><stop offset="0" stop-color="#1d1d1b"/><stop offset="1" stop-color="#ededed"/></linearGradient></defs><g id="Ebene_1-2"><rect class="cls-2" width="159.53" height="159.53"/><path class="cls-1" d="M48.26,57.33h-10.73v-25.63h10.29c5,0,7.92,2.81,7.92,7.2,0,2.84-1.87,4.68-3.17,5.29,1.55.72,3.53,2.34,3.53,5.76,0,4.79-3.28,7.38-7.85,7.38ZM47.43,36.17h-4.9v5.9h4.9c2.12,0,3.31-1.19,3.31-2.95s-1.19-2.95-3.31-2.95ZM47.76,46.57h-5.22v6.3h5.22c2.27,0,3.35-1.44,3.35-3.17s-1.08-3.13-3.35-3.13Z"/><path class="cls-1" d="M74.54,57.33l-1.51-4.54h-9.11l-1.55,4.54h-5.22l9.32-25.63h3.92l9.36,25.63h-5.22ZM68.57,39.26l-3.24,9.32h6.37l-3.13-9.32Z"/><path class="cls-1" d="M95.71,57.33v-10.73h-8.67v10.73h-5v-25.63h5v10.47h8.67v-10.47h5v25.63h-5Z"/><path class="cls-1" d="M120.95,57.33l-10.15-15.73v15.73h-5v-25.63h4.46l10.15,15.69v-15.69h5v25.63h-4.46Z"/><path class="cls-1" d="M64.5,93.33v-10.73h-8.67v10.73h-5v-25.63h5v10.47h8.67v-10.47h5v25.63h-5Z"/><path class="cls-1" d="M90.02,90.85c-1.73,1.73-3.89,2.7-6.84,2.7s-5.15-.97-6.88-2.7c-2.56-2.56-2.59-5.44-2.59-10.33s.04-7.77,2.59-10.33c1.73-1.73,3.92-2.7,6.88-2.7s5.11.97,6.84,2.7c2.56,2.56,2.63,5.44,2.63,10.33s-.07,7.77-2.63,10.33ZM86.39,73.32c-.72-.83-1.84-1.37-3.2-1.37s-2.48.54-3.24,1.37c-.94,1.08-1.22,2.3-1.22,7.2s.29,6.08,1.22,7.16c.76.83,1.87,1.4,3.24,1.4s2.48-.58,3.2-1.4c.94-1.08,1.26-2.27,1.26-7.16s-.32-6.12-1.26-7.2Z"/><path class="cls-1" d="M101.87,72.17v6.3h10.11v4.46h-10.11v10.4h-5v-25.63h16.88v4.46h-11.88Z"/></g></svg>