<?xml version="1.0" encoding="UTF-8"?><svg id="Ebene_2" xmlns="http://www.w3.org/2000/svg" xmlns:xlink="http://www.w3.org/1999/xlink" viewBox="0 0 159.53 159.53"><defs><style>.cls-1{fill:#fff;}.cls-2{fill:url(#Unbenannter_Verlauf_33);}</style><linearGradient id="Unbenannter_Verlauf_33" x1="79.76" y1="159.53" x2="79.76" y2="0" gradientUnits="userSpaceOnUse"><stop offset="0" stop-color="#1d1d1b"/><stop offset="1" stop-color="#ededed"/></linearGradient></defs><g id="Ebene_1-2"><rect class="cls-2" width="159.53" height="159.53"/><path class="cls-1" d="M40.95,57.33h-10.73v-25.63h10.29c5,0,7.92,2.81,7.92,7.2,0,2.84-1.87,4.68-3.17,5.29,1.55.72,3.53,2.34,3.53,5.76,0,4.79-3.28,7.38-7.85,7.38ZM40.13,36.17h-4.9v5.9h4.9c2.12,0,3.31-1.19,3.31-2.95s-1.19-2.95-3.31-2.95ZM40.45,46.57h-5.22v6.3h5.22c2.27,0,3.35-1.44,3.35-3.17s-1.08-3.13-3.35-3.13Z"/><path class="cls-1" d="M53.01,57.33v-25.63h16.88v4.46h-11.88v6.01h10.11v4.46h-10.11v6.23h11.88v4.46h-16.88Z"/><path class="cls-1" d="M73.89,57.33v-25.63h5v21.17h11.63v4.46h-16.63Z"/><path class="cls-1" d="M93.69,57.33v-25.63h5v21.17h11.63v4.46h-16.63Z"/><path class="cls-1" d="M113.49,57.33v-25.63h16.88v4.46h-11.88v6.01h10.12v4.46h-10.12v6.23h11.88v4.46h-16.88Z"/><path class="cls-1" d="M59.6,93.33h-3.74l-8.46-25.63h5.18l5.15,16.7,5.15-16.7h5.22l-8.49,25.63Z"/><path class="cls-1" d="M79.33,93.55c-5.26,0-9.43-3.56-9.43-9v-16.85h5v16.67c0,2.95,1.73,4.72,4.43,4.72s4.46-1.76,4.46-4.72v-16.67h4.97v16.85c0,5.44-4.18,9-9.43,9Z"/><path class="cls-1" d="M93.44,93.33v-25.63h16.88v4.46h-11.88v6.01h10.11v4.46h-10.11v6.23h11.88v4.46h-16.88Z"/></g></svg>