<?xml version="1.0" encoding="UTF-8"?><svg id="Ebene_2" xmlns="http://www.w3.org/2000/svg" xmlns:xlink="http://www.w3.org/1999/xlink" viewBox="0 0 159.53 159.53"><defs><style>.cls-1{fill:#fff;}.cls-2{fill:url(#Unbenannter_Verlauf_33);}</style><linearGradient id="Unbenannter_Verlauf_33" x1="79.76" y1="159.53" x2="79.76" y2="0" gradientUnits="userSpaceOnUse"><stop offset="0" stop-color="#1d1d1b"/><stop offset="1" stop-color="#ededed"/></linearGradient></defs><g id="Ebene_1-2"><rect class="cls-2" width="159.53" height="159.53"/><path class="cls-1" d="M20.81,57.33v-4.03l10.94-17.13h-10.47v-4.46h16.38v3.96l-10.98,17.21h10.98v4.46h-16.85Z"/><path class="cls-1" d="M50.22,57.55c-5.26,0-9.43-3.56-9.43-9v-16.85h5v16.67c0,2.95,1.73,4.71,4.43,4.71s4.46-1.76,4.46-4.71v-16.67h4.97v16.85c0,5.44-4.18,9-9.43,9ZM44.25,29.15v-4.5h4v4.5h-4ZM52.2,29.15v-4.5h4v4.5h-4Z"/><path class="cls-1" d="M77.94,57.33l-5-10.22h-3.6v10.22h-5v-25.63h10.04c5.22,0,8.31,3.56,8.31,7.85,0,3.6-2.2,5.83-4.68,6.73l5.72,11.05h-5.8ZM74.06,36.16h-4.72v6.77h4.72c2.2,0,3.64-1.4,3.64-3.38s-1.44-3.38-3.64-3.38Z"/><path class="cls-1" d="M86.98,57.33v-25.63h5v25.63h-5Z"/><path class="cls-1" d="M105.66,57.55c-2.95,0-5.11-.97-6.88-2.7-2.56-2.56-2.59-5.43-2.59-10.33s.04-7.78,2.59-10.33c1.76-1.73,3.92-2.7,6.88-2.7,4.79,0,8.46,2.74,9.4,8.1h-5.11c-.5-2.09-1.8-3.64-4.28-3.64-1.37,0-2.48.5-3.2,1.33-.94,1.08-1.26,2.34-1.26,7.24s.32,6.16,1.26,7.24c.72.83,1.84,1.33,3.2,1.33,2.48,0,3.82-1.55,4.32-3.63h5.08c-.94,5.36-4.64,8.1-9.4,8.1Z"/><path class="cls-1" d="M132.16,57.33v-10.73h-8.67v10.73h-5v-25.63h5v10.47h8.67v-10.47h5v25.63h-5Z"/><path class="cls-1" d="M15.32,93.55c-2.95,0-5.11-.97-6.88-2.7-2.56-2.56-2.59-5.43-2.59-10.33s.04-7.78,2.59-10.33c1.76-1.73,3.92-2.7,6.88-2.7,4.79,0,8.46,2.74,9.4,8.1h-5.11c-.5-2.09-1.8-3.64-4.28-3.64-1.37,0-2.48.5-3.2,1.33-.94,1.08-1.26,2.34-1.26,7.24s.32,6.16,1.26,7.24c.72.83,1.84,1.33,3.2,1.33,2.48,0,3.82-1.55,4.32-3.63h5.08c-.94,5.36-4.64,8.1-9.4,8.1Z"/><path class="cls-1" d="M28.14,93.33v-25.63h16.88v4.46h-11.88v6.01h10.11v4.46h-10.11v6.23h11.88v4.46h-16.88Z"/><path class="cls-1" d="M64.17,93.33l-10.15-15.73v15.73h-5v-25.63h4.46l10.15,15.69v-15.69h5v25.63h-4.46Z"/><path class="cls-1" d="M83.51,72.16v21.17h-5v-21.17h-6.69v-4.46h18.39v4.46h-6.7Z"/><path class="cls-1" d="M106.98,93.33l-5-10.22h-3.6v10.22h-5v-25.63h10.04c5.22,0,8.32,3.56,8.32,7.85,0,3.6-2.2,5.83-4.68,6.73l5.72,11.05h-5.8ZM103.09,72.16h-4.72v6.77h4.72c2.2,0,3.63-1.4,3.63-3.38s-1.44-3.38-3.63-3.38Z"/><path class="cls-1" d="M130.59,93.33l-1.51-4.54h-9.11l-1.55,4.54h-5.22l9.32-25.63h3.92l9.36,25.63h-5.22ZM124.62,75.26l-3.24,9.32h6.37l-3.13-9.32Z"/><path class="cls-1" d="M138.08,93.33v-25.63h5v21.17h11.63v4.46h-16.63Z"/></g></svg>