<?xml version="1.0" encoding="UTF-8"?><svg id="Ebene_2" xmlns="http://www.w3.org/2000/svg" xmlns:xlink="http://www.w3.org/1999/xlink" viewBox="0 0 159.53 159.53"><defs><style>.cls-1{fill:#fff;}.cls-2{fill:url(#Unbenannter_Verlauf_33);}</style><linearGradient id="Unbenannter_Verlauf_33" x1="79.76" y1="159.53" x2="79.76" y2="0" gradientUnits="userSpaceOnUse"><stop offset="0" stop-color="#1d1d1b"/><stop offset="1" stop-color="#ededed"/></linearGradient></defs><g id="Ebene_1-2"><rect class="cls-2" width="159.53" height="159.53"/><path class="cls-1" d="M48.17,57.33v-10.73h-8.67v10.73h-5v-25.63h5v10.47h8.67v-10.47h5v25.63h-5Z"/><path class="cls-1" d="M72.83,57.33l-1.51-4.54h-9.11l-1.55,4.54h-5.22l9.32-25.63h3.92l9.36,25.63h-5.22ZM66.85,39.26l-3.24,9.32h6.37l-3.13-9.32Z"/><path class="cls-1" d="M93.92,57.33l-5-10.22h-3.6v10.22h-5v-25.63h10.04c5.22,0,8.32,3.56,8.32,7.85,0,3.6-2.2,5.83-4.68,6.73l5.72,11.05h-5.8ZM90.03,36.16h-4.72v6.77h4.72c2.2,0,3.63-1.4,3.63-3.38s-1.44-3.38-3.63-3.38Z"/><path class="cls-1" d="M119.95,53.59c-1.83,2.56-4.25,3.74-7.74,3.74h-9.25v-25.63h9.25c3.49,0,5.9,1.19,7.74,3.74,1.58,2.2,1.62,4.82,1.62,9.07s-.04,6.88-1.62,9.07ZM115.52,37.75c-.83-1.04-2.05-1.58-3.74-1.58h-3.82v16.7h3.82c1.69,0,2.92-.54,3.74-1.58.94-1.12,1.04-2.74,1.04-6.77s-.11-5.65-1.04-6.77Z"/><path class="cls-1" d="M23.9,93.33h-10.73v-25.63h10.29c5,0,7.92,2.81,7.92,7.2,0,2.84-1.87,4.68-3.17,5.29,1.55.72,3.53,2.34,3.53,5.76,0,4.79-3.28,7.38-7.85,7.38ZM23.07,72.16h-4.9v5.9h4.9c2.12,0,3.31-1.19,3.31-2.95s-1.19-2.95-3.31-2.95ZM23.4,82.57h-5.22v6.3h5.22c2.27,0,3.35-1.44,3.35-3.17s-1.08-3.13-3.35-3.13Z"/><path class="cls-1" d="M49.57,93.33l-5-10.22h-3.6v10.22h-5v-25.63h10.04c5.22,0,8.31,3.56,8.31,7.85,0,3.6-2.2,5.83-4.68,6.73l5.72,11.05h-5.79ZM45.68,72.16h-4.71v6.77h4.71c2.2,0,3.64-1.4,3.64-3.38s-1.44-3.38-3.64-3.38Z"/><path class="cls-1" d="M67.64,93.55c-5.26,0-9.43-3.56-9.43-9v-16.85h5v16.67c0,2.95,1.73,4.71,4.43,4.71s4.46-1.76,4.46-4.71v-16.67h4.97v16.85c0,5.44-4.18,9-9.43,9ZM61.67,65.15v-4.5h4v4.5h-4ZM69.62,65.15v-4.5h4v4.5h-4Z"/><path class="cls-1" d="M90.36,93.55c-2.95,0-5.11-.97-6.88-2.7-2.56-2.56-2.59-5.43-2.59-10.33s.04-7.78,2.59-10.33c1.76-1.73,3.92-2.7,6.88-2.7,4.79,0,8.46,2.74,9.39,8.1h-5.11c-.5-2.09-1.8-3.64-4.28-3.64-1.37,0-2.48.5-3.2,1.33-.94,1.08-1.26,2.34-1.26,7.24s.32,6.16,1.26,7.24c.72.83,1.84,1.33,3.2,1.33,2.48,0,3.82-1.55,4.32-3.63h5.08c-.94,5.36-4.64,8.1-9.39,8.1Z"/><path class="cls-1" d="M118.08,93.33l-6.59-11.66-3.31,3.96v7.7h-5v-25.63h5v11.16l9.03-11.16h6.08l-8.5,10.19,9.11,15.44h-5.83Z"/><path class="cls-1" d="M126.21,93.33v-25.63h16.88v4.46h-11.88v6.01h10.11v4.46h-10.11v6.23h11.88v4.46h-16.88Z"/></g></svg>