<?xml version="1.0" encoding="UTF-8"?><svg id="Ebene_2" xmlns="http://www.w3.org/2000/svg" xmlns:xlink="http://www.w3.org/1999/xlink" viewBox="0 0 159.53 159.53"><defs><style>.cls-1{fill:#fff;}.cls-2{fill:url(#Unbenannter_Verlauf_33);}</style><linearGradient id="Unbenannter_Verlauf_33" x1="79.76" y1="159.53" x2="79.76" y2="0" gradientUnits="userSpaceOnUse"><stop offset="0" stop-color="#1d1d1b"/><stop offset="1" stop-color="#ededed"/></linearGradient></defs><g id="Ebene_1-2"><rect class="cls-2" width="159.53" height="159.53"/><path class="cls-1" d="M37.79,57.33v-25.63h5v21.17h11.63v4.46h-16.63Z"/><path class="cls-1" d="M72.17,57.33l-1.51-4.54h-9.11l-1.55,4.54h-5.22l9.32-25.63h3.92l9.36,25.63h-5.22ZM66.19,39.26l-3.24,9.32h6.37l-3.13-9.32Z"/><path class="cls-1" d="M94.81,57.33l-10.15-15.73v15.73h-5v-25.63h4.46l10.15,15.69v-15.69h5v25.63h-4.46Z"/><path class="cls-1" d="M120.15,54.63c-2.12,2.23-4.5,2.92-7.23,2.92-2.92,0-5.08-.97-6.84-2.7-2.56-2.56-2.59-5.44-2.59-10.33s.04-7.77,2.59-10.33c1.76-1.73,3.92-2.7,6.84-2.7,5.97,0,8.96,3.89,9.65,8.21h-5.04c-.58-2.45-2.05-3.74-4.61-3.74-1.37,0-2.45.54-3.2,1.37-.94,1.08-1.22,2.3-1.22,7.2s.29,6.16,1.22,7.24c.76.83,1.84,1.33,3.2,1.33,1.55,0,2.77-.54,3.56-1.44.83-.94,1.15-2.09,1.15-3.42v-.94h-4.71v-4.21h9.68v3.74c0,3.71-.58,5.87-2.45,7.81Z"/><path class="cls-1" d="M16.26,93.55c-3.89,0-6.84-.83-9.36-3.38l3.24-3.24c1.62,1.62,3.82,2.16,6.16,2.16,2.99,0,4.57-1.15,4.57-3.2,0-.86-.25-1.58-.79-2.12-.5-.47-1.01-.68-2.3-.86l-3.06-.47c-2.27-.32-3.82-1.01-4.97-2.12-1.22-1.19-1.83-2.88-1.83-5.04,0-4.57,3.38-7.77,8.93-7.77,3.53,0,6.08.86,8.28,2.99l-3.17,3.13c-1.58-1.55-3.56-1.76-5.26-1.76-2.66,0-3.92,1.48-3.92,3.24,0,.68.18,1.33.72,1.84.5.47,1.26.83,2.34.97l3.06.47c2.34.32,3.78.94,4.9,2.02,1.37,1.26,1.98,3.1,1.98,5.4,0,4.97-4.1,7.77-9.5,7.77Z"/><path class="cls-1" d="M39.37,72.17v21.17h-5v-21.17h-6.69v-4.46h18.39v4.46h-6.7Z"/><path class="cls-1" d="M62.84,93.33l-5-10.22h-3.6v10.22h-5v-25.63h10.04c5.22,0,8.31,3.56,8.31,7.85,0,3.6-2.2,5.83-4.68,6.73l5.72,11.05h-5.79ZM58.95,72.17h-4.71v6.77h4.71c2.2,0,3.64-1.4,3.64-3.38s-1.44-3.38-3.64-3.38Z"/><path class="cls-1" d="M86.46,93.33l-1.51-4.54h-9.11l-1.55,4.54h-5.22l9.32-25.63h3.92l9.36,25.63h-5.22ZM80.48,75.26l-3.24,9.32h6.37l-3.13-9.32Z"/><path class="cls-1" d="M101,93.55c-3.89,0-6.84-.83-9.36-3.38l3.24-3.24c1.62,1.62,3.82,2.16,6.16,2.16,2.99,0,4.57-1.15,4.57-3.2,0-.86-.25-1.58-.79-2.12-.5-.47-1.01-.68-2.3-.86l-3.06-.47c-2.27-.32-3.82-1.01-4.97-2.12-1.22-1.19-1.84-2.88-1.84-5.04,0-4.57,3.38-7.77,8.93-7.77,3.53,0,6.08.86,8.28,2.99l-3.17,3.13c-1.58-1.55-3.56-1.76-5.25-1.76-2.66,0-3.92,1.48-3.92,3.24,0,.68.18,1.33.72,1.84.5.47,1.26.83,2.34.97l3.06.47c2.34.32,3.78.94,4.9,2.02,1.37,1.26,1.98,3.1,1.98,5.4,0,4.97-4.1,7.77-9.5,7.77Z"/><path class="cls-1" d="M121.2,93.55c-3.89,0-6.84-.83-9.36-3.38l3.24-3.24c1.62,1.62,3.82,2.16,6.16,2.16,2.99,0,4.57-1.15,4.57-3.2,0-.86-.25-1.58-.79-2.12-.5-.47-1.01-.68-2.3-.86l-3.06-.47c-2.27-.32-3.82-1.01-4.97-2.12-1.22-1.19-1.83-2.88-1.83-5.04,0-4.57,3.38-7.77,8.93-7.77,3.53,0,6.08.86,8.28,2.99l-3.17,3.13c-1.58-1.55-3.56-1.76-5.26-1.76-2.66,0-3.92,1.48-3.92,3.24,0,.68.18,1.33.72,1.84.5.47,1.26.83,2.34.97l3.06.47c2.34.32,3.78.94,4.89,2.02,1.37,1.26,1.98,3.1,1.98,5.4,0,4.97-4.1,7.77-9.5,7.77Z"/><path class="cls-1" d="M134.52,93.33v-25.63h16.88v4.46h-11.88v6.01h10.11v4.46h-10.11v6.23h11.88v4.46h-16.88Z"/></g></svg>