<?xml version="1.0" encoding="UTF-8"?><svg id="Ebene_2" xmlns="http://www.w3.org/2000/svg" viewBox="0 0 25.22 41.13"><defs><style>.cls-1{fill:#eaeaea;}</style></defs><g id="Ebene_1-2"><polyline class="cls-1" points="12.61 41.13 10.43 36.77 14.79 36.77 12.61 41.13"/><polyline class="cls-1" points="24.44 37.96 20.37 35.27 24.14 33.09 24.44 37.96"/><polyline class="cls-1" points=".78 37.96 1.07 33.09 4.85 35.27 .78 37.96"/><path class="cls-1" d="M15.77,1.29h-6.45c-.36,0-.65-.29-.65-.65s.29-.65.65-.65h6.45c.36,0,.65.29.65.65s-.29.65-.65.65Z"/><path class="cls-1" d="M19.27,7.68c-.69-1.55.34-3.12-2.44-3.37-1.69-.15-7.87-.26-9.32.07-1.64.37-1.23,2.34-1.78,3.42,0,0,0,0,0,.01C2.28,10.06,0,13.96,0,18.38c0,6.96,5.64,12.61,12.61,12.61s12.61-5.64,12.61-12.61c0-4.51-2.37-8.47-5.94-10.7ZM12.61,26.87c-5.12,0-9.29-4.17-9.29-9.29,0-.41.34-.75.75-.75s.75.34.75.75c0,4.3,3.5,7.79,7.79,7.79.41,0,.75.34.75.75s-.34.75-.75.75Z"/></g></svg>