<?xml version="1.0" encoding="UTF-8"?><svg id="Ebene_2" xmlns="http://www.w3.org/2000/svg" viewBox="0 0 183.16 183.16"><defs><style>.cls-1{fill:#262626;}.cls-2{fill:#fafafa;}</style></defs><g id="Ebene_1-2"><path class="cls-2" d="M19.81,0h143.55c10.93,0,19.81,8.87,19.81,19.81v143.55c0,10.93-8.87,19.81-19.81,19.81H22.11c-12.2,0-22.11-9.91-22.11-22.11V19.81C0,8.87,8.87,0,19.81,0Z"/><path class="cls-1" d="M91.58,20.27c-36.28,0-65.8,29.52-65.8,65.81,0,17.7,7.06,33.75,18.46,45.59,0,0,20.24,21.99,47.35,31.23,0,0,22.61-7.61,44.72-28.68,1.44-1.34,2.81-2.74,4.12-4.2,10.5-11.66,16.95-27.04,16.95-43.93,0-36.28-29.52-65.81-65.81-65.81Z"/><path class="cls-2" d="M91.58,108.85c-12.82,0-23.27-10.44-23.27-23.27s10.45-23.27,23.27-23.27,23.27,10.44,23.27,23.27-10.45,23.27-23.27,23.27ZM91.58,72.2c-7.38,0-13.38,6.01-13.38,13.38s6.01,13.38,13.38,13.38,13.38-6.01,13.38-13.38-6.01-13.38-13.38-13.38Z"/><path class="cls-2" d="M91.58,131.71c-2.61,0-4.72-2.11-4.72-4.72v-7.24c0-2.61,2.11-4.72,4.72-4.72s4.72,2.11,4.72,4.72v7.24c0,2.61-2.11,4.72-4.72,4.72Z"/><path class="cls-2" d="M120.86,119.58c-1.21,0-2.41-.46-3.34-1.38l-5.12-5.12c-1.84-1.84-1.84-4.83,0-6.67s4.83-1.84,6.67,0l5.12,5.12c1.84,1.84,1.84,4.83,0,6.67-.92.92-2.13,1.38-3.34,1.38Z"/><path class="cls-2" d="M132.99,90.3h-7.24c-2.61,0-4.72-2.11-4.72-4.72s2.11-4.72,4.72-4.72h7.24c2.61,0,4.72,2.11,4.72,4.72s-2.11,4.72-4.72,4.72Z"/><path class="cls-2" d="M115.74,66.14c-1.21,0-2.41-.46-3.34-1.38-1.84-1.84-1.84-4.83,0-6.67l5.12-5.12c1.84-1.84,4.83-1.84,6.67,0,1.84,1.84,1.84,4.83,0,6.67l-5.12,5.12c-.92.92-2.13,1.38-3.34,1.38Z"/><path class="cls-2" d="M91.58,56.13c-2.61,0-4.72-2.11-4.72-4.72v-7.24c0-2.61,2.11-4.72,4.72-4.72s4.72,2.11,4.72,4.72v7.24c0,2.61-2.11,4.72-4.72,4.72Z"/><path class="cls-2" d="M67.42,66.14c-1.21,0-2.41-.46-3.34-1.38l-5.12-5.12c-1.84-1.84-1.84-4.83,0-6.67s4.83-1.84,6.67,0l5.12,5.12c1.84,1.84,1.84,4.83,0,6.67-.92.92-2.13,1.38-3.34,1.38Z"/><path class="cls-2" d="M57.41,90.3h-7.24c-2.61,0-4.72-2.11-4.72-4.72s2.11-4.72,4.72-4.72h7.24c2.61,0,4.72,2.11,4.72,4.72s-2.11,4.72-4.72,4.72Z"/><path class="cls-2" d="M62.3,119.58c-1.21,0-2.41-.46-3.34-1.38-1.84-1.84-1.84-4.83,0-6.67l5.12-5.12c1.84-1.84,4.83-1.84,6.67,0s1.84,4.83,0,6.67l-5.12,5.12c-.92.92-2.13,1.38-3.34,1.38Z"/></g></svg>