<?xml version="1.0" encoding="UTF-8"?><svg id="Ebene_2" xmlns="http://www.w3.org/2000/svg" xmlns:xlink="http://www.w3.org/1999/xlink" viewBox="0 0 159.53 159.53"><defs><style>.cls-1{fill:#fff;}.cls-2{fill:url(#Unbenannter_Verlauf_33);}</style><linearGradient id="Unbenannter_Verlauf_33" x1="79.76" y1="159.53" x2="79.76" y2="0" gradientUnits="userSpaceOnUse"><stop offset="0" stop-color="#1d1d1b"/><stop offset="1" stop-color="#ededed"/></linearGradient></defs><g id="Ebene_1-2"><rect class="cls-2" width="159.53" height="159.53"/><path class="cls-1" d="M36.45,57.33l-10.15-15.73v15.73h-5v-25.63h4.46l10.15,15.69v-15.69h5v25.63h-4.46Z"/><path class="cls-1" d="M46,57.33v-25.63h5v25.63h-5Z"/><path class="cls-1" d="M56.08,57.33v-25.63h16.88v4.46h-11.88v6.01h10.12v4.46h-10.12v6.23h11.88v4.46h-16.88Z"/><path class="cls-1" d="M93.94,53.59c-1.84,2.56-4.25,3.74-7.74,3.74h-9.25v-25.63h9.25c3.49,0,5.9,1.19,7.74,3.74,1.58,2.2,1.62,4.82,1.62,9.07s-.04,6.88-1.62,9.07ZM89.52,37.75c-.83-1.04-2.05-1.58-3.74-1.58h-3.82v16.7h3.82c1.69,0,2.92-.54,3.74-1.58.94-1.12,1.04-2.74,1.04-6.77s-.11-5.65-1.04-6.77Z"/><path class="cls-1" d="M99.78,57.33v-25.63h16.88v4.46h-11.88v6.01h10.11v4.46h-10.11v6.23h11.88v4.46h-16.88Z"/><path class="cls-1" d="M134.26,57.33l-5-10.22h-3.6v10.22h-5v-25.63h10.04c5.22,0,8.32,3.56,8.32,7.85,0,3.6-2.2,5.83-4.68,6.73l5.72,11.05h-5.8ZM130.38,36.17h-4.71v6.77h4.71c2.2,0,3.64-1.4,3.64-3.38s-1.44-3.38-3.64-3.38Z"/><path class="cls-1" d="M55.25,89.59c-1.84,2.56-4.25,3.74-7.74,3.74h-9.25v-25.63h9.25c3.49,0,5.9,1.19,7.74,3.74,1.58,2.2,1.62,4.82,1.62,9.07s-.04,6.88-1.62,9.07ZM50.82,73.75c-.83-1.04-2.05-1.58-3.74-1.58h-3.82v16.7h3.82c1.69,0,2.92-.54,3.74-1.58.94-1.12,1.04-2.74,1.04-6.77s-.11-5.65-1.04-6.77Z"/><path class="cls-1" d="M76.52,90.85c-1.73,1.73-3.89,2.7-6.84,2.7s-5.15-.97-6.88-2.7c-2.56-2.56-2.59-5.43-2.59-10.33s.04-7.77,2.59-10.33c1.73-1.73,3.92-2.7,6.88-2.7s5.11.97,6.84,2.7c2.56,2.56,2.63,5.44,2.63,10.33s-.07,7.77-2.63,10.33ZM72.89,73.32c-.72-.83-1.83-1.37-3.2-1.37s-2.48.54-3.24,1.37c-.94,1.08-1.22,2.3-1.22,7.2s.29,6.08,1.22,7.16c.76.83,1.87,1.4,3.24,1.4s2.48-.58,3.2-1.4c.94-1.08,1.26-2.27,1.26-7.16s-.32-6.12-1.26-7.2Z"/><path class="cls-1" d="M96.97,93.33l-5-10.22h-3.6v10.22h-5v-25.63h10.04c5.22,0,8.32,3.56,8.32,7.85,0,3.6-2.2,5.83-4.68,6.73l5.72,11.05h-5.8ZM93.08,72.17h-4.72v6.77h4.72c2.2,0,3.63-1.4,3.63-3.38s-1.44-3.38-3.63-3.38Z"/><path class="cls-1" d="M111.01,72.17v6.3h10.11v4.46h-10.11v10.4h-5v-25.63h16.88v4.46h-11.88Z"/></g></svg>