<?xml version="1.0" encoding="UTF-8"?><svg id="Ebene_2" xmlns="http://www.w3.org/2000/svg" xmlns:xlink="http://www.w3.org/1999/xlink" viewBox="0 0 159.53 159.53"><defs><style>.cls-1{fill:#fff;}.cls-2{fill:url(#Unbenannter_Verlauf_33);}</style><linearGradient id="Unbenannter_Verlauf_33" x1="79.76" y1="159.53" x2="79.76" y2="0" gradientUnits="userSpaceOnUse"><stop offset="0" stop-color="#1d1d1b"/><stop offset="1" stop-color="#ededed"/></linearGradient></defs><g id="Ebene_1-2"><rect class="cls-2" width="159.53" height="159.53"/><path class="cls-1" d="M17.93,57.33v-4.03l10.94-17.13h-10.47v-4.46h16.38v3.96l-10.98,17.21h10.98v4.46h-16.85Z"/><path class="cls-1" d="M47.34,57.55c-5.26,0-9.43-3.56-9.43-9v-16.85h5v16.67c0,2.95,1.73,4.72,4.43,4.72s4.46-1.76,4.46-4.72v-16.67h4.97v16.85c0,5.44-4.18,9-9.43,9ZM41.36,29.15v-4.5h4v4.5h-4ZM49.32,29.15v-4.5h4v4.5h-4Z"/><path class="cls-1" d="M75.06,57.33l-5-10.22h-3.6v10.22h-5v-25.63h10.04c5.22,0,8.31,3.56,8.31,7.85,0,3.6-2.2,5.83-4.68,6.73l5.72,11.05h-5.8ZM71.17,36.17h-4.72v6.77h4.72c2.2,0,3.64-1.4,3.64-3.38s-1.44-3.38-3.64-3.38Z"/><path class="cls-1" d="M84.1,57.33v-25.63h5v25.63h-5Z"/><path class="cls-1" d="M102.78,57.55c-2.95,0-5.11-.97-6.88-2.7-2.56-2.56-2.59-5.44-2.59-10.33s.04-7.77,2.59-10.33c1.76-1.73,3.92-2.7,6.88-2.7,4.79,0,8.46,2.74,9.39,8.1h-5.11c-.5-2.09-1.8-3.64-4.28-3.64-1.37,0-2.48.5-3.2,1.33-.94,1.08-1.26,2.34-1.26,7.23s.32,6.16,1.26,7.24c.72.83,1.84,1.33,3.2,1.33,2.48,0,3.82-1.55,4.32-3.64h5.08c-.94,5.36-4.64,8.1-9.39,8.1Z"/><path class="cls-1" d="M129.27,57.33v-10.73h-8.67v10.73h-5v-25.63h5v10.47h8.67v-10.47h5v25.63h-5Z"/><path class="cls-1" d="M22.8,90.85c-1.73,1.73-3.89,2.7-6.84,2.7s-5.15-.97-6.88-2.7c-2.56-2.56-2.59-5.43-2.59-10.33s.04-7.77,2.59-10.33c1.73-1.73,3.92-2.7,6.88-2.7s5.11.97,6.84,2.7c2.56,2.56,2.63,5.44,2.63,10.33s-.07,7.77-2.63,10.33ZM9.99,65.15v-4.5h4v4.5h-4ZM19.17,73.32c-.72-.83-1.84-1.37-3.2-1.37s-2.48.54-3.24,1.37c-.94,1.08-1.22,2.3-1.22,7.2s.29,6.08,1.22,7.16c.76.83,1.87,1.4,3.24,1.4s2.48-.58,3.2-1.4c.94-1.08,1.26-2.27,1.26-7.16s-.32-6.12-1.26-7.2ZM17.94,65.15v-4.5h4v4.5h-4Z"/><path class="cls-1" d="M43.25,93.33l-5-10.22h-3.6v10.22h-5v-25.63h10.04c5.22,0,8.31,3.56,8.31,7.85,0,3.6-2.2,5.83-4.68,6.73l5.72,11.05h-5.8ZM39.36,72.17h-4.72v6.77h4.72c2.2,0,3.64-1.4,3.64-3.38s-1.44-3.38-3.64-3.38Z"/><path class="cls-1" d="M52.29,93.33v-25.63h5v21.17h11.63v4.46h-16.63Z"/><path class="cls-1" d="M72.09,93.33v-25.63h5v25.63h-5Z"/><path class="cls-1" d="M97.07,93.33l-6.59-11.66-3.31,3.96v7.7h-5v-25.63h5v11.16l9.03-11.16h6.08l-8.49,10.19,9.11,15.44h-5.83Z"/><path class="cls-1" d="M119.93,90.85c-1.73,1.73-3.89,2.7-6.84,2.7s-5.15-.97-6.88-2.7c-2.56-2.56-2.59-5.43-2.59-10.33s.04-7.77,2.59-10.33c1.73-1.73,3.92-2.7,6.88-2.7s5.11.97,6.84,2.7c2.56,2.56,2.63,5.44,2.63,10.33s-.07,7.77-2.63,10.33ZM116.3,73.32c-.72-.83-1.84-1.37-3.2-1.37s-2.48.54-3.24,1.37c-.94,1.08-1.22,2.3-1.22,7.2s.29,6.08,1.22,7.16c.76.83,1.87,1.4,3.24,1.4s2.48-.58,3.2-1.4c.94-1.08,1.26-2.27,1.26-7.16s-.32-6.12-1.26-7.2Z"/><path class="cls-1" d="M141.93,93.33l-10.15-15.73v15.73h-5v-25.63h4.46l10.15,15.69v-15.69h5v25.63h-4.46Z"/></g></svg>