<?xml version="1.0" encoding="UTF-8"?><svg id="Ebene_2" xmlns="http://www.w3.org/2000/svg" viewBox="0 0 37.44 37.44"><defs><style>.cls-1{fill:#eaeaea;}</style></defs><g id="Ebene_1-2"><path class="cls-1" d="M18.72,9.94c4.85,0,8.78,3.93,8.78,8.78s-3.93,8.78-8.78,8.78-8.78-3.93-8.78-8.78,3.93-8.78,8.78-8.78M18.72,8.07c-5.87,0-10.65,4.78-10.65,10.65s4.78,10.65,10.65,10.65,10.65-4.78,10.65-10.65-4.78-10.65-10.65-10.65h0Z"/><path class="cls-1" d="M18.72,1.76c9.35,0,16.96,7.61,16.96,16.96s-7.61,16.96-16.96,16.96S1.76,28.07,1.76,18.72,9.37,1.76,18.72,1.76M18.72,0C8.39,0,0,8.39,0,18.72s8.39,18.72,18.72,18.72,18.72-8.39,18.72-18.72S29.05,0,18.72,0h0Z"/><circle class="cls-1" cx="18.72" cy="18.72" r="3.74" transform="translate(-1.47 1.59) rotate(-4.68)"/></g></svg>