<?xml version="1.0" encoding="UTF-8"?><svg id="Ebene_2" xmlns="http://www.w3.org/2000/svg" viewBox="0 0 83.36 102.79"><defs><style>.cls-1{fill:#1d1d1b;}.cls-2{fill:#fff;}</style></defs><g id="Ebene_1-2"><path class="cls-2" d="M41.68,0C18.66,0,0,18.66,0,41.68c0,6.78,1.63,13.18,4.51,18.84,8.39,18.59,26.24,34.7,33.73,40.92,0,0,3.41,3.03,6.9,0,7.48-6.22,25.34-22.33,33.73-40.92,2.87-5.66,4.51-12.06,4.51-18.84C83.36,18.66,64.7,0,41.68,0Z"/><circle class="cls-1" cx="41.4" cy="40.98" r="14.75"/><polyline class="cls-1" points="41.68 14.75 45.08 21.54 38.29 21.54 41.68 14.75"/><polyline class="cls-1" points="23.05 22.24 30.25 24.64 25.45 29.44 23.05 22.24"/><polyline class="cls-1" points="15.18 40.7 21.96 37.31 21.96 44.09 15.18 40.7"/><polyline class="cls-1" points="22.66 59.33 25.06 52.13 29.86 56.93 22.66 59.33"/><polyline class="cls-1" points="41.13 67.2 37.73 60.42 44.52 60.42 41.13 67.2"/><polyline class="cls-1" points="59.75 59.72 52.55 57.32 57.35 52.52 59.75 59.72"/><polyline class="cls-1" points="67.63 41.26 60.84 44.65 60.84 37.86 67.63 41.26"/><polyline class="cls-1" points="60.15 22.63 57.74 29.83 52.94 25.03 60.15 22.63"/></g></svg>